<?xml version="1.0" standalone="no"?>
<!DOCTYPE svg PUBLIC "-//W3C//DTD SVG 20010904//EN"
 "http://www.w3.org/TR/2001/REC-SVG-20010904/DTD/svg10.dtd">
<svg version="1.0" xmlns="http://www.w3.org/2000/svg"
 width="512.000000pt" height="529.000000pt" viewBox="0 0 512.000000 529.000000"
 preserveAspectRatio="xMidYMid meet">

<g transform="translate(0.000000,529.000000) scale(0.100000,-0.100000)"
fill="#000000" stroke="none">
<path d="M2320 5200 c-792 -63 -1479 -458 -1901 -1093 -380 -573 -509 -1301
-354 -2002 57 -260 181 -568 319 -795 190 -311 482 -613 786 -813 125 -82 378
-210 508 -256 100 -36 150 -38 198 -6 51 33 54 57 54 411 l0 327 -42 -7 c-24
-3 -104 -9 -178 -12 -349 -16 -563 89 -659 324 -69 172 -174 310 -302 397 -57
40 -92 91 -79 116 14 25 89 35 155 20 80 -18 189 -75 246 -128 28 -26 83 -94
121 -150 39 -57 90 -121 115 -143 57 -50 147 -95 221 -111 84 -17 221 -6 319
26 l81 27 16 70 c20 87 63 180 110 235 20 22 36 44 36 47 0 3 -12 6 -27 6 -59
0 -308 42 -420 70 -82 21 -154 47 -233 87 -101 50 -126 68 -200 142 -121 123
-177 224 -225 415 -35 139 -48 277 -42 454 7 230 46 341 171 498 l64 79 -20
75 c-42 161 -32 386 26 557 19 58 27 68 52 75 97 26 358 -75 604 -233 l80 -51
107 25 c354 83 735 82 1104 -4 l85 -20 90 56 c235 149 491 248 591 229 31 -6
34 -11 57 -83 63 -199 69 -381 20 -568 l-17 -62 48 -53 c92 -102 148 -198 185
-313 45 -141 38 -443 -15 -651 -45 -176 -99 -282 -203 -395 -116 -125 -263
-206 -477 -259 -106 -27 -372 -70 -431 -70 l-28 0 26 -28 c45 -47 88 -124 116
-207 l27 -80 5 -542 c5 -530 5 -542 26 -570 26 -35 77 -54 129 -47 57 7 250
85 385 156 657 341 1140 977 1304 1718 48 220 60 337 60 595 0 274 -18 423
-79 651 -261 990 -1103 1710 -2158 1849 -145 19 -419 26 -557 15z"/>
<path d="M893 1724 c-7 -18 20 -44 44 -44 23 0 28 32 8 46 -25 19 -44 18 -52
-2z"/>
<path d="M1007 1643 c-15 -14 -6 -43 18 -59 27 -18 45 -12 45 15 0 31 -45 62
-63 44z"/>
<path d="M1104 1505 c-17 -43 31 -100 62 -74 19 16 18 32 -7 63 -23 29 -47 34
-55 11z"/>
<path d="M1227 1363 c-13 -13 -7 -50 11 -66 10 -10 31 -17 45 -17 22 0 27 5
27 25 0 42 -59 83 -83 58z"/>
<path d="M1413 1250 c-49 -20 -13 -73 46 -68 28 2 37 8 39 24 5 35 -44 60 -85
44z"/>
<path d="M1819 1231 c-20 -16 -22 -23 -13 -38 15 -24 50 -28 80 -9 29 20 31
42 5 56 -28 15 -46 12 -72 -9z"/>
<path d="M1614 1206 c-15 -12 -17 -18 -8 -33 15 -24 82 -25 97 -1 25 38 -46
65 -89 34z"/>
</g>
</svg>
